<?xml version="1.0" encoding="UTF-8"?><svg id="Layer_1" xmlns="http://www.w3.org/2000/svg" viewBox="0 0 431 93.19"><defs><style>.cls-1{fill:#77c159;}</style></defs><g id="layer1"><g id="flowRoot2998"><path id="path3007" class="cls-1" d="M0,58.47c0-4.87.82-9.42,2.45-13.64,1.63-4.22,3.92-7.9,6.85-11.03,2.94-3.13,6.45-5.59,10.54-7.37,4.09-1.78,8.57-2.68,13.44-2.68,3.7,0,7.06.54,10.08,1.63,3.02,1.09,5.95,2.87,8.78,5.35v-5.68h16.57v66.82h-16.57v-5.68c-2.83,2.48-5.75,4.26-8.78,5.35-3.02,1.09-6.38,1.63-10.08,1.63-4.87,0-9.35-.89-13.44-2.68-4.09-1.78-7.6-4.24-10.54-7.37-2.94-3.13-5.22-6.81-6.85-11.03s-2.45-8.77-2.45-13.64ZM35.43,77.59c1.31,0,2.68-.14,4.11-.42,1.44-.28,2.88-.76,4.34-1.44,1.46-.67,2.88-1.58,4.27-2.71,1.39-1.13,2.72-2.52,3.98-4.18v-20.75c-1.26-1.65-2.59-3.03-3.98-4.14-1.39-1.11-2.82-2.01-4.27-2.71-1.46-.7-2.9-1.19-4.34-1.47-1.44-.28-2.81-.42-4.11-.42-2.57,0-4.97.48-7.21,1.44-2.24.96-4.19,2.29-5.84,4.01-1.65,1.72-2.95,3.74-3.88,6.07-.94,2.33-1.4,4.86-1.4,7.6s.47,5.27,1.4,7.6c.94,2.33,2.23,4.35,3.88,6.07,1.65,1.72,3.6,3.06,5.84,4.01,2.24.96,4.64,1.44,7.21,1.44Z"/><path id="path3027" class="cls-1" d="M110.15,40.25c-7.85.06-14.68,5.53-14.68,13.65v37.98h-16.57v-37.52c.09-15.65,13.64-30.39,31.01-30.6h.46c17.37.21,30.92,14.96,31.01,30.6v37.52h-16.57v-37.98c0-8.12-6.82-13.59-14.68-13.65"/><path id="path3011" class="cls-1" d="M149.23,58.47c0-4.87.82-9.42,2.45-13.64,1.63-4.22,3.92-7.9,6.85-11.03s6.45-5.59,10.54-7.37c4.09-1.78,8.57-2.68,13.44-2.68,3.7,0,7.07.54,10.11,1.63,3.05,1.09,5.96,2.85,8.74,5.29V5.03h16.57v86.85h-16.57v-5.61c-2.78,2.48-5.7,4.25-8.74,5.32-3.05,1.07-6.42,1.6-10.11,1.6-4.87,0-9.35-.89-13.44-2.68-4.09-1.78-7.6-4.24-10.54-7.37-2.94-3.13-5.22-6.81-6.85-11.03s-2.45-8.77-2.45-13.64h0ZM184.66,77.59c1.31,0,2.68-.14,4.11-.42,1.44-.28,2.88-.76,4.34-1.44,1.46-.67,2.88-1.58,4.27-2.71,1.39-1.13,2.72-2.52,3.98-4.18v-20.75c-1.26-1.65-2.59-3.03-3.98-4.14-1.39-1.11-2.82-2.01-4.27-2.71-1.46-.7-2.9-1.19-4.34-1.47-1.44-.28-2.81-.42-4.11-.42-2.57,0-4.97.48-7.21,1.44-2.24.96-4.19,2.29-5.84,4.01-1.65,1.72-2.95,3.74-3.88,6.07-.94,2.33-1.4,4.86-1.4,7.6,0,2.74.47,5.27,1.4,7.6.94,2.33,2.23,4.35,3.88,6.07,1.65,1.72,3.6,3.06,5.84,4.01,2.24.96,4.64,1.44,7.21,1.44Z"/><path id="path3015" class="cls-1" d="M295.56,77.59c2.48,0,4.82-.47,7.01-1.4,2.2-.94,4.11-2.25,5.74-3.95,1.63-1.7,2.91-3.71,3.85-6.04.94-2.33,1.4-4.9,1.4-7.73,0-2.78-.48-5.34-1.44-7.67-.96-2.33-2.26-4.34-3.92-6.04-1.65-1.7-3.57-3.02-5.74-3.98-2.18-.96-4.48-1.44-6.92-1.44s-4.82.48-7.01,1.44c-2.2.96-4.11,2.28-5.74,3.98-1.63,1.7-2.93,3.71-3.88,6.04-.96,2.33-1.44,4.88-1.44,7.67s.47,5.41,1.4,7.73c.94,2.33,2.22,4.34,3.85,6.04,1.63,1.7,3.55,3.01,5.74,3.95,2.2.94,4.56,1.4,7.08,1.4h0ZM295.56,93.19c-4.83,0-9.37-.87-13.64-2.61-4.26-1.74-7.99-4.17-11.19-7.28s-5.72-6.79-7.57-11.03c-1.85-4.24-2.77-8.84-2.77-13.8s.92-9.35,2.77-13.57c1.85-4.22,4.36-7.9,7.54-11.03s6.91-5.6,11.19-7.41c4.28-1.81,8.84-2.71,13.67-2.71s9.37.9,13.64,2.71c4.26,1.81,7.98,4.27,11.16,7.41,3.18,3.13,5.69,6.81,7.54,11.03,1.85,4.22,2.77,8.74,2.77,13.57,0,4.96-.92,9.56-2.77,13.8-1.85,4.24-4.37,7.92-7.57,11.03-3.2,3.11-6.92,5.54-11.16,7.28-4.24,1.74-8.78,2.61-13.61,2.61Z"/><path id="path3023" class="cls-1" d="M346.38,19.83c-1.34,0-2.61-.26-3.81-.79-1.2-.52-2.25-1.24-3.15-2.14-.9-.9-1.62-1.95-2.14-3.15-.52-1.2-.79-2.47-.79-3.81s.26-2.62.79-3.84c.52-1.22,1.24-2.28,2.14-3.18.9-.9,1.95-1.62,3.15-2.14,1.2-.52,2.47-.79,3.81-.79,1.34,0,2.62.26,3.84.79,1.22.52,2.28,1.24,3.18,2.14.9.9,1.62,1.96,2.14,3.18.52,1.22.79,2.5.79,3.84,0,1.34-.26,2.61-.79,3.81-.52,1.2-1.24,2.25-2.14,3.15-.9.9-1.96,1.62-3.18,2.14-1.22.52-2.5.79-3.84.79Z"/><path id="path3017" class="cls-1" d="M338.09,25.06h16.57v66.82h-16.57V25.06Z"/><path id="path3019" class="cls-1" d="M362.29,58.47c0-4.87.82-9.42,2.45-13.64,1.63-4.22,3.92-7.9,6.85-11.03s6.45-5.59,10.54-7.37c4.09-1.78,8.57-2.68,13.44-2.68,3.7,0,7.07.54,10.11,1.63,3.05,1.09,5.96,2.85,8.74,5.29V5.03h16.57v86.85h-16.57v-5.61c-2.78,2.48-5.7,4.25-8.74,5.32-3.05,1.07-6.42,1.6-10.11,1.6-4.87,0-9.35-.89-13.44-2.68-4.09-1.78-7.6-4.24-10.54-7.37-2.94-3.13-5.22-6.81-6.85-11.03s-2.45-8.77-2.45-13.64ZM397.72,77.59c1.31,0,2.68-.14,4.11-.42,1.44-.28,2.88-.76,4.34-1.44,1.46-.67,2.88-1.58,4.27-2.71,1.39-1.13,2.72-2.52,3.98-4.18v-20.75c-1.26-1.65-2.59-3.03-3.98-4.14-1.39-1.11-2.82-2.01-4.27-2.71-1.46-.7-2.9-1.19-4.34-1.47-1.44-.28-2.81-.42-4.11-.42-2.57,0-4.97.48-7.21,1.44-2.24.96-4.19,2.29-5.84,4.01-1.65,1.72-2.95,3.74-3.88,6.07-.94,2.33-1.4,4.86-1.4,7.6,0,2.74.47,5.27,1.4,7.6.94,2.33,2.23,4.35,3.88,6.07,1.65,1.72,3.6,3.06,5.84,4.01,2.24.96,4.64,1.44,7.21,1.44Z"/><path id="path3030" class="cls-1" d="M258.81,40.05c-11.11,0-16.01,5.73-16.01,13.85v37.98h-16.57v-37.52c.09-15.65,9.13-31.03,32.58-31.03"/></g></g></svg>