<svg xmlns="http://www.w3.org/2000/svg" xmlns:xlink="http://www.w3.org/1999/xlink" viewBox="0 0 281.43 249.48"><defs><radialGradient id="a" cx="490.94" cy="-661.89" r="25.94" gradientTransform="matrix(4.83, 0, 0, -4.86, -1985.68, -2819.82)" gradientUnits="userSpaceOnUse"><stop offset="0.25" stop-color="#fff"/><stop offset="1"/></radialGradient><radialGradient id="b" cx="581.56" cy="-765.37" r="25.93" gradientTransform="matrix(1, 0, 0, -1, -371.27, 382.73)" xlink:href="#a"/><radialGradient id="d" cx="581.56" cy="-765.37" r="25.94" gradientTransform="matrix(1, 0, 0, -1, -371.27, 382.73)" xlink:href="#a"/><radialGradient id="e" cx="464.44" cy="-637.43" r="27.77" gradientTransform="matrix(4.97, 0, 0, -4.97, -1930.28, -2781.22)" gradientUnits="userSpaceOnUse"><stop offset="0" stop-color="#d1e7ee"/><stop offset="0.1" stop-color="#cde4ec"/><stop offset="0.2" stop-color="#c0dce8"/><stop offset="0.3" stop-color="#add0e1"/><stop offset="0.65" stop-color="#3982b1"/><stop offset="0.72" stop-color="#3474aa"/><stop offset="0.9" stop-color="#285699"/><stop offset="1" stop-color="#244b93"/></radialGradient><radialGradient id="f" cx="464.43" cy="-637.24" r="27.94" gradientTransform="matrix(4.97, 0, 0, -4.97, -1930.28, -2781.22)" gradientUnits="userSpaceOnUse"><stop offset="0" stop-color="#d8eeed"/><stop offset="0.17" stop-color="#98d8d7"/><stop offset="0.22" stop-color="#8ed3d3"/><stop offset="0.31" stop-color="#74c6ca"/><stop offset="0.42" stop-color="#49b1ba"/><stop offset="0.45" stop-color="#3caab5"/><stop offset="0.56" stop-color="#2e81a4"/><stop offset="0.68" stop-color="#215b94"/><stop offset="0.78" stop-color="#19448b"/><stop offset="0.84" stop-color="#163b87"/><stop offset="1" stop-color="#0b317d"/></radialGradient><radialGradient id="g" cx="464.42" cy="-637.38" r="27.87" gradientTransform="matrix(4.97, 0, 0, -4.97, -1930.28, -2781.22)" gradientUnits="userSpaceOnUse"><stop offset="0" stop-color="#d8eeed"/><stop offset="0.17" stop-color="#98d8d7"/><stop offset="0.22" stop-color="#8ed3d3"/><stop offset="0.31" stop-color="#74c6ca"/><stop offset="0.42" stop-color="#49b1ba"/><stop offset="0.45" stop-color="#3caab5"/><stop offset="0.56" stop-color="#2e81a4"/><stop offset="0.68" stop-color="#215b94"/><stop offset="0.78" stop-color="#19448b"/><stop offset="0.84" stop-color="#163b87"/><stop offset="1" stop-color="#152469"/></radialGradient><radialGradient id="h" cx="555.73" cy="-741.43" r="27.89" gradientTransform="matrix(1, 0, 0, -1, -371.27, 382.73)" xlink:href="#f"/><linearGradient id="i" x1="462.34" y1="-638.14" x2="458" y2="-653.42" gradientTransform="matrix(4.97, 0, 0, -4.97, -1930.28, -2781.22)" gradientUnits="userSpaceOnUse"><stop offset="0" stop-color="#98d8d7"/><stop offset="1" stop-color="#152469"/></linearGradient><radialGradient id="j" cx="555.74" cy="-741.42" r="27.99" gradientTransform="matrix(1, 0, 0, -1, -371.27, 382.73)" xlink:href="#g"/><linearGradient id="k" x1="437.59" y1="-644.83" x2="443.36" y2="-644.83" gradientTransform="matrix(4.97, 0, 0, -4.97, -1930.28, -2781.22)" gradientUnits="userSpaceOnUse"><stop offset="0" stop-color="#def3f1"/><stop offset="1" stop-color="#5085bc"/></linearGradient><linearGradient id="l" x1="457.3" y1="-645.89" x2="463.17" y2="-645.89" xlink:href="#k"/><linearGradient id="m" x1="442.79" y1="-635.08" x2="463.09" y2="-635.08" gradientTransform="matrix(4.97, 0, 0, -4.97, -1930.28, -2781.22)" gradientUnits="userSpaceOnUse"><stop offset="0" stop-color="#094992"/><stop offset="0.67" stop-color="#8bcde2"/><stop offset="1" stop-color="#e6f6f9"/></linearGradient><linearGradient id="n" x1="443.29" y1="-635.42" x2="462.68" y2="-635.42" gradientTransform="matrix(4.97, 0, 0, -4.97, -1930.28, -2781.22)" gradientUnits="userSpaceOnUse"><stop offset="0.01" stop-color="#bbc7e1"/><stop offset="0.22" stop-color="#7090c3"/><stop offset="0.54" stop-color="#c8eaef"/><stop offset="1" stop-color="#fff"/></linearGradient><linearGradient id="o" x1="442.84" y1="-634.84" x2="463.09" y2="-634.84" gradientTransform="matrix(4.97, 0, 0, -4.97, -1930.28, -2781.22)" gradientUnits="userSpaceOnUse"><stop offset="0.01" stop-color="#7090c3"/><stop offset="0.54" stop-color="#c1e7ed"/><stop offset="1" stop-color="#fff"/></linearGradient><radialGradient id="p" cx="442.78" cy="-636.67" r="0.07" gradientTransform="matrix(4.97, 0, 0, -4.97, -1930.28, -2781.22)" gradientUnits="userSpaceOnUse"><stop offset="0" stop-color="#7e9ec4"/><stop offset="1" stop-color="#0a50a1"/></radialGradient><radialGradient id="q" cx="429.42" cy="-653.95" r="34.26" gradientTransform="matrix(4.97, 0, 0, -4.97, -1930.28, -2781.22)" gradientUnits="userSpaceOnUse"><stop offset="0" stop-color="#d8eeed"/><stop offset="0.17" stop-color="#98d8d7"/><stop offset="0.22" stop-color="#8ed3d3"/><stop offset="0.31" stop-color="#74c6ca"/><stop offset="0.42" stop-color="#49b1ba"/><stop offset="0.45" stop-color="#3caab5"/><stop offset="0.5" stop-color="#369fb5"/><stop offset="0.63" stop-color="#2a88b4"/><stop offset="0.71" stop-color="#257fb4"/><stop offset="1" stop-color="#4161ab"/></radialGradient><radialGradient id="r" cx="464.42" cy="-638.04" r="25.86" gradientTransform="matrix(4.97, 0, 0, -4.97, -1930.28, -2781.22)" gradientUnits="userSpaceOnUse"><stop offset="0" stop-color="#fcf5b0"/><stop offset="0.17" stop-color="#f7eda0"/><stop offset="0.28" stop-color="#f3e591"/><stop offset="0.65" stop-color="#fcd118"/><stop offset="0.8" stop-color="#f7a50c"/><stop offset="0.93" stop-color="#f38603"/><stop offset="1" stop-color="#f27b00"/></radialGradient><linearGradient id="s" x1="481.04" y1="-658.93" x2="480.94" y2="-659.33" gradientTransform="matrix(4.97, 0, 0, -4.97, -1930.28, -2781.22)" gradientUnits="userSpaceOnUse"><stop offset="0" stop-color="#de980d"/><stop offset="1" stop-color="#a85d10"/></linearGradient><linearGradient id="t" x1="481.6" y1="-649.31" x2="486.71" y2="-649.31" gradientTransform="matrix(4.97, 0, 0, -4.97, -1930.28, -2781.22)" gradientUnits="userSpaceOnUse"><stop offset="0" stop-color="#deb150"/><stop offset="1" stop-color="#fff8b3"/></linearGradient><linearGradient id="u" x1="486.36" y1="-641.46" x2="486.36" y2="-641.79" gradientTransform="matrix(4.97, 0, 0, -4.97, -1930.28, -2781.22)" gradientUnits="userSpaceOnUse"><stop offset="0.01" stop-color="#c67c0c"/><stop offset="1" stop-color="#de980d"/></linearGradient><linearGradient id="v" x1="486.21" y1="-640.89" x2="486.42" y2="-641.24" gradientTransform="matrix(4.97, 0, 0, -4.97, -1930.28, -2781.22)" gradientUnits="userSpaceOnUse"><stop offset="0.01" stop-color="#fed40f"/><stop offset="1" stop-color="#a85d10"/></linearGradient><linearGradient id="w" x1="485.73" y1="-640.68" x2="485.6" y2="-640.83" xlink:href="#v"/><linearGradient id="x" x1="465.76" y1="-640.16" x2="485.91" y2="-640.16" gradientTransform="matrix(4.97, 0, 0, -4.97, -1930.28, -2781.22)" gradientUnits="userSpaceOnUse"><stop offset="0" stop-color="#fff8fb"/><stop offset="1" stop-color="#fec236"/></linearGradient><linearGradient id="y" x1="484" y1="-649.07" x2="483.55" y2="-648.94" gradientTransform="matrix(4.97, 0, 0, -4.97, -1930.28, -2781.22)" gradientUnits="userSpaceOnUse"><stop offset="0" stop-color="#b37e00"/><stop offset="1" stop-color="#ff9e00"/></linearGradient><linearGradient id="z" x1="480.69" y1="-658.52" x2="480.46" y2="-659.03" gradientTransform="matrix(4.97, 0, 0, -4.97, -1930.28, -2781.22)" gradientUnits="userSpaceOnUse"><stop offset="0.01" stop-color="#ffd100"/><stop offset="1" stop-color="#a8710a"/></linearGradient><linearGradient id="aa" x1="460.43" y1="-658.16" x2="480.98" y2="-658.16" gradientTransform="matrix(4.97, 0, 0, -4.97, -1930.28, -2781.22)" gradientUnits="userSpaceOnUse"><stop offset="0" stop-color="#de980d"/><stop offset="0.4" stop-color="#fdda10"/><stop offset="1" stop-color="#de980d"/></linearGradient><linearGradient id="ab" x1="460.71" y1="-657.51" x2="460.38" y2="-657.15" gradientTransform="matrix(4.97, 0, 0, -4.97, -1930.28, -2781.22)" gradientUnits="userSpaceOnUse"><stop offset="0" stop-color="#de980d"/><stop offset="0.1" stop-color="#de980d"/><stop offset="0.7" stop-color="#fdda10"/><stop offset="1" stop-color="#de980d"/></linearGradient><linearGradient id="ac" x1="460.58" y1="-657.13" x2="460.82" y2="-657.55" gradientTransform="matrix(4.97, 0, 0, -4.97, -1930.28, -2781.22)" gradientUnits="userSpaceOnUse"><stop offset="0" stop-color="#de980d"/><stop offset="0.4" stop-color="#febf0f"/><stop offset="0.8" stop-color="#fed40f"/><stop offset="1" stop-color="#de980d"/></linearGradient><radialGradient id="ad" cx="465.49" cy="-639.4" r="0.25" gradientTransform="matrix(4.97, 0, 0, -4.97, -1930.28, -2781.22)" gradientUnits="userSpaceOnUse"><stop offset="0" stop-color="#feeb71"/><stop offset="1" stop-color="#de980d"/></radialGradient><linearGradient id="ae" x1="463.5" y1="-647.6" x2="463.03" y2="-647.46" gradientTransform="matrix(4.97, 0, 0, -4.97, -1930.28, -2781.22)" gradientUnits="userSpaceOnUse"><stop offset="0.01" stop-color="#ffefbb"/><stop offset="1" stop-color="#ffbf00"/></linearGradient><linearGradient id="af" x1="464.76" y1="-640.38" x2="486.66" y2="-640.38" gradientTransform="matrix(4.97, 0, 0, -4.97, -1930.28, -2781.22)" gradientUnits="userSpaceOnUse"><stop offset="0.01" stop-color="#fca859"/><stop offset="0.21" stop-color="#fdc30f"/><stop offset="1" stop-color="#b51c00"/></linearGradient><linearGradient id="ag" x1="464.95" y1="-640.65" x2="486.7" y2="-640.65" gradientTransform="matrix(4.97, 0, 0, -4.97, -1930.28, -2781.22)" gradientUnits="userSpaceOnUse"><stop offset="0.01" stop-color="#fff6d8"/><stop offset="0.52" stop-color="#fdda10"/><stop offset="1" stop-color="#f9bd0c"/></linearGradient><linearGradient id="ah" x1="481.46" y1="-658.35" x2="481.15" y2="-658.08" gradientTransform="matrix(4.97, 0, 0, -4.97, -1930.28, -2781.22)" gradientUnits="userSpaceOnUse"><stop offset="0" stop-color="#eab949"/><stop offset="0.07" stop-color="#edc25a"/><stop offset="0.28" stop-color="#f3d883"/><stop offset="0.48" stop-color="#f8e9a4"/><stop offset="0.67" stop-color="#fcf5bc"/><stop offset="0.85" stop-color="#fefcca"/><stop offset="1" stop-color="#ffffcf"/></linearGradient><radialGradient id="ai" cx="463.63" cy="-634.49" r="24.55" gradientTransform="matrix(4.97, 0, 0, -4.97, -1930.28, -2781.22)" gradientUnits="userSpaceOnUse"><stop offset="0" stop-color="#efd916"/><stop offset="0.11" stop-color="#efd516"/><stop offset="0.22" stop-color="#edc715"/><stop offset="0.33" stop-color="#ebb213"/><stop offset="0.45" stop-color="#e89312"/><stop offset="0.57" stop-color="#e36d0f"/><stop offset="0.65" stop-color="#e04d0d"/><stop offset="0.79" stop-color="#ce2907"/><stop offset="0.92" stop-color="#bf0b02"/><stop offset="1" stop-color="#b90000"/></radialGradient><linearGradient id="aj" x1="448.86" y1="-614.19" x2="448.96" y2="-614.19" gradientTransform="matrix(4.97, 0, 0, -4.97, -1930.28, -2781.22)" gradientUnits="userSpaceOnUse"><stop offset="0" stop-color="#fd7e36"/><stop offset="1" stop-color="#bd6f4f"/></linearGradient><linearGradient id="ak" x1="448.91" y1="-613.61" x2="469.14" y2="-613.61" gradientTransform="matrix(4.97, 0, 0, -4.97, -1930.28, -2781.22)" gradientUnits="userSpaceOnUse"><stop offset="0" stop-color="#fc2b21"/><stop offset="0.24" stop-color="#ff590a"/><stop offset="0.25" stop-color="#fb570b"/><stop offset="0.33" stop-color="#e74c0e"/><stop offset="0.42" stop-color="#d84511"/><stop offset="0.52" stop-color="#d04013"/><stop offset="0.7" stop-color="#cd3f13"/><stop offset="0.8" stop-color="#d04213"/><stop offset="0.87" stop-color="#d84b14"/><stop offset="0.93" stop-color="#e65b16"/><stop offset="0.99" stop-color="#f97219"/><stop offset="1" stop-color="#fc7519"/></linearGradient><linearGradient id="al" x1="443.7" y1="-623.61" x2="449.39" y2="-623.61" xlink:href="#aj"/><linearGradient id="am" x1="470.57" y1="-616.44" x2="450.33" y2="-611.93" gradientTransform="matrix(4.97, 0, 0, -4.97, -1930.28, -2781.22)" gradientUnits="userSpaceOnUse"><stop offset="0" stop-color="#fe560d"/><stop offset="1" stop-color="#8c1501"/></linearGradient><linearGradient id="an" x1="458.78" y1="-617.21" x2="458.55" y2="-610.92" xlink:href="#am"/><linearGradient id="ao" x1="463.33" y1="-624.58" x2="469.24" y2="-624.58" gradientTransform="matrix(4.97, 0, 0, -4.97, -1930.28, -2781.22)" gradientUnits="userSpaceOnUse"><stop offset="0" stop-color="#fd7e36"/><stop offset="1" stop-color="#fc895b"/></linearGradient><linearGradient id="ap" x1="443.71" y1="-631.67" x2="463.94" y2="-631.67" gradientTransform="matrix(4.97, 0, 0, -4.97, -1930.28, -2781.22)" gradientUnits="userSpaceOnUse"><stop offset="0" stop-color="#fd9b20"/><stop offset="0.25" stop-color="#fd9b20"/><stop offset="0.34" stop-color="#fdb830"/><stop offset="0.43" stop-color="#fed23e"/><stop offset="0.49" stop-color="#fedb43"/><stop offset="0.75" stop-color="#fe8411"/><stop offset="1" stop-color="#fe560d"/></linearGradient><linearGradient id="ar" x1="448.91" y1="-613.61" x2="469.14" y2="-613.61" xlink:href="#ak"/><radialGradient id="as" cx="464.31" cy="-637.21" r="28.09" gradientTransform="matrix(4.97, 0, 0, -4.97, -1930.28, -2781.22)" gradientUnits="userSpaceOnUse"><stop offset="0.01" stop-color="#d1e787"/><stop offset="0.12" stop-color="#cee583"/><stop offset="0.25" stop-color="#c4de76"/><stop offset="0.38" stop-color="#b3d361"/><stop offset="0.51" stop-color="#9cc443"/><stop offset="0.64" stop-color="#7fb01d"/><stop offset="0.65" stop-color="#7bae19"/><stop offset="0.78" stop-color="#578d19"/><stop offset="0.92" stop-color="#366e1a"/><stop offset="1" stop-color="#29621a"/></radialGradient><linearGradient id="at" x1="471.87" y1="-619.02" x2="492.14" y2="-619.02" gradientTransform="matrix(4.97, 0, 0, -4.97, -1930.28, -2781.22)" gradientUnits="userSpaceOnUse"><stop offset="0" stop-color="#d3ed89"/><stop offset="1" stop-color="#5f821c"/></linearGradient><linearGradient id="au" x1="469.59" y1="-626.52" x2="469.1" y2="-626.38" gradientTransform="matrix(4.97, 0, 0, -4.97, -1930.28, -2781.22)" gradientUnits="userSpaceOnUse"><stop offset="0.28" stop-color="#d3ed89"/><stop offset="0.4" stop-color="#d3ed89"/><stop offset="1" stop-color="#5f821c"/></linearGradient><linearGradient id="av" x1="471.96" y1="-617.26" x2="471.5" y2="-617.23" gradientTransform="matrix(4.97, 0, 0, -4.97, -1930.28, -2781.22)" gradientUnits="userSpaceOnUse"><stop offset="0" stop-color="#7aa922"/><stop offset="0.2" stop-color="#d3ed89"/><stop offset="0.52" stop-color="#d3ed89"/><stop offset="1" stop-color="#7aa922"/></linearGradient><linearGradient id="aw" x1="487.21" y1="-627.76" x2="492.85" y2="-627.76" gradientTransform="matrix(4.97, 0, 0, -4.97, -2173.56, -3040.49)" gradientUnits="userSpaceOnUse"><stop offset="0.01" stop-color="#7aa922"/><stop offset="0.17" stop-color="#1d4a20"/><stop offset="0.38" stop-color="#26551b"/><stop offset="1" stop-color="#7aa922"/></linearGradient><linearGradient id="ax" x1="487.32" y1="-636.68" x2="486.86" y2="-636.65" gradientTransform="matrix(4.97, 0, 0, -4.97, -1930.28, -2781.22)" gradientUnits="userSpaceOnUse"><stop offset="0" stop-color="#7aa922"/><stop offset="1" stop-color="#d3ed89"/></linearGradient><linearGradient id="ay" x1="486.71" y1="-637.19" x2="486.42" y2="-637.52" gradientTransform="matrix(4.97, 0, 0, -4.97, -1930.28, -2781.22)" gradientUnits="userSpaceOnUse"><stop offset="0" stop-color="#5f821c"/><stop offset="1" stop-color="#26551b"/></linearGradient><linearGradient id="az" x1="466.47" y1="-637.26" x2="487.02" y2="-637.26" gradientTransform="matrix(4.97, 0, 0, -4.97, -1930.28, -2781.22)" gradientUnits="userSpaceOnUse"><stop offset="0" stop-color="#7aa922"/><stop offset="0.4" stop-color="#d3ed89"/><stop offset="1" stop-color="#7aa922"/></linearGradient><linearGradient id="ba" x1="466.77" y1="-636.46" x2="466.44" y2="-636.1" gradientTransform="matrix(4.97, 0, 0, -4.97, -1930.28, -2781.22)" gradientUnits="userSpaceOnUse"><stop offset="0" stop-color="#1d3a19"/><stop offset="0.1" stop-color="#26551b"/><stop offset="0.65" stop-color="#7aa922"/><stop offset="1" stop-color="#d3ed89"/></linearGradient><linearGradient id="bb" x1="466.6" y1="-636.11" x2="466.83" y2="-636.54" gradientTransform="matrix(4.97, 0, 0, -4.97, -1930.28, -2781.22)" gradientUnits="userSpaceOnUse"><stop offset="0" stop-color="#5f821c"/><stop offset="0.4" stop-color="#7aa922"/><stop offset="0.8" stop-color="#5f821c"/><stop offset="1" stop-color="#5f821c"/></linearGradient><linearGradient id="bc" x1="492.02" y1="-619.72" x2="492.09" y2="-619.49" gradientTransform="matrix(4.97, 0, 0, -4.97, -1930.28, -2781.22)" gradientUnits="userSpaceOnUse"><stop offset="0" stop-color="#5b7f30"/><stop offset="1" stop-color="#d3ed89"/></linearGradient><linearGradient id="bd" x1="492.48" y1="-621.82" x2="471.83" y2="-615.9" gradientTransform="matrix(4.97, 0, 0, -4.97, -1930.28, -2781.22)" gradientUnits="userSpaceOnUse"><stop offset="0" stop-color="#1d3419"/><stop offset="0.23" stop-color="#26551b"/><stop offset="1" stop-color="#7aa922"/></linearGradient><linearGradient id="be" x1="490.15" y1="-627.74" x2="489.67" y2="-627.61" gradientTransform="matrix(4.97, 0, 0, -4.97, -1930.28, -2781.22)" gradientUnits="userSpaceOnUse"><stop offset="0" stop-color="#5f821c"/><stop offset="1" stop-color="#75c146"/></linearGradient><linearGradient id="bf" x1="492.04" y1="-618.7" x2="492.96" y2="-618.7" xlink:href="#at"/><linearGradient id="bg" x1="492.39" y1="-622.04" x2="471.82" y2="-616.13" gradientTransform="matrix(4.97, 0, 0, -4.97, -1930.28, -2781.22)" gradientUnits="userSpaceOnUse"><stop offset="0" stop-color="#93bf81"/><stop offset="0.23" stop-color="#26551b"/><stop offset="1" stop-color="#bde256"/></linearGradient><linearGradient id="bh" x1="492.03" y1="-619.72" x2="492.1" y2="-619.49" xlink:href="#bc"/><linearGradient id="bi" x1="492.04" y1="-618.7" x2="492.96" y2="-618.7" xlink:href="#at"/></defs><title>Microsoft Windows logo - Brandlogos.net</title><path d="M324.56,375a103.33,103.33,0,0,0-14.29,1.4A141.14,141.14,0,0,0,294,380.14c-5.87,1.7-12.12,3.88-18.54,6.46h0a.79.79,0,0,0-.45.51l-25.61,86.76a1.17,1.17,0,0,0,.4,1.18l1.71,1.27h0a1.49,1.49,0,0,0,1,.24h0a186.24,186.24,0,0,1,26.14-7.91,99.45,99.45,0,0,1,21.47-2.44,76.84,76.84,0,0,1,16,1.74,77.75,77.75,0,0,1,14,4.5,134.59,134.59,0,0,1,17.12,9.27h0a1.17,1.17,0,0,0,1,.09l1.47-.85h0l.12-.08a1.3,1.3,0,0,0,.63-.76V480h0L376,395.64l.88-2.9a1.39,1.39,0,0,0,0-.24,1,1,0,0,0-.39-.81h0c-10.85-7.12-23.11-14-39.27-16.07a82.53,82.53,0,0,0-12.62-.64Z" transform="translate(-243.28 -259.26)" style="opacity:0.20000000298023224;isolation:isolate;fill:url(#a)"/><path d="M388.22,400.67h0a2.28,2.28,0,0,0-1.06.41h0l-.75.53a4,4,0,0,0-1.23,1.23h0a.31.31,0,0,1,0,.08h0l-25.64,86a1.74,1.74,0,0,0,.87,2.07,119.13,119.13,0,0,0,19.17,10.27,94.78,94.78,0,0,0,11.27,3.92,96,96,0,0,0,12.52,2.63,100.18,100.18,0,0,0,13.86.93,112.23,112.23,0,0,0,15.3-1.16A131.31,131.31,0,0,0,449.34,504a164.83,164.83,0,0,0,18.47-6.45h0a2.08,2.08,0,0,0,.8-.78l25-84.59h0a1.43,1.43,0,0,0,0-.37,1.66,1.66,0,0,0-.45-1.13l-2.1-1.61h0c-.14-.15-.5-.38-1.4-.25-6.42,2.11-12.62,3.85-18.46,5.22A155.08,155.08,0,0,1,455,417a101.15,101.15,0,0,1-26.77,0A81.37,81.37,0,0,1,407,411a119.57,119.57,0,0,1-18-9.92h0a2.4,2.4,0,0,0-.93-.25Z" transform="translate(-243.28 -259.26)" style="opacity:0.20000000298023224;isolation:isolate;fill:url(#b)"/><path d="M417.51,296l-.44.3a5,5,0,0,0-1.55,1.47h0l-.09.29-25.72,86.14a1.77,1.77,0,0,0-.1.57,1.75,1.75,0,0,0,.89,1.43h0c2,1.32,4.14,2.59,6.26,3.77a95.75,95.75,0,0,0,29.82,12.1,90,90,0,0,0,18.26,2,107,107,0,0,0,20.86-1.94,128.32,128.32,0,0,0,31.93-9.46h0a2.1,2.1,0,0,0,.86-.79l26.15-87a1.45,1.45,0,0,0,.08-.45c0-.75-.65-1.37-1.29-1.91a5.15,5.15,0,0,0-1.17-.88,2.11,2.11,0,0,0-1.65-.09h0c-6.4,2.56-12.62,4.7-18.49,6.39a136.84,136.84,0,0,1-16.26,3.65,101.9,101.9,0,0,1-14.32,1.26,83.19,83.19,0,0,1-12.64-.76,78.25,78.25,0,0,1-21.38-6.23,133.23,133.23,0,0,1-18-10.12,1.69,1.69,0,0,0-2,.18Z" transform="translate(-243.28 -259.26)" style="opacity:0.20000000298023224;isolation:isolate;fill:url(#b)"/><path d="M334.27,271.87a175.31,175.31,0,0,0-28.81,9h0a.73.73,0,0,0-.48.52l-1.33,4.43L279,368.42a.92.92,0,0,0,0,.29,1.53,1.53,0,0,0,.38,1l.12.07h0l.17.13,1.52,1.15h0l.14.1c.31.13.39.13.47.12h.09a3.25,3.25,0,0,0,.76-.25c22.46-8.62,40.43-11.76,56.53-9.85a76.6,76.6,0,0,1,20.33,5.37,123.15,123.15,0,0,1,17.59,9.19h.17a1.65,1.65,0,0,0,1,.14l1.62-.71h0l.08,0a1.39,1.39,0,0,0,.64-.79h0l16.22-54.24L405.55,291l.58-1.92h0l.42-1.41a1.16,1.16,0,0,0,0-.15v-.12a.9.9,0,0,0-.38-.77,146.82,146.82,0,0,0-13.26-7.9l-.27-.14a77.5,77.5,0,0,0-35.11-9.14,103.3,103.3,0,0,0-23.3,2.37Z" transform="translate(-243.28 -259.26)" style="opacity:0.20000000298023224;isolation:isolate;fill:url(#d)"/><path d="M269.41,377.57c52.28-21.53,77.59-10,100.25,5.34l-26.17,90c-22.74-15.29-47.48-27.89-100-6.19l25.58-89Z" transform="translate(-243.28 -259.26)" style="fill:url(#e)"/><path d="M245.45,469.32a1.11,1.11,0,0,0,.47-.14c.38.26.68.43.68.43A1.47,1.47,0,0,1,245.45,469.32Z" transform="translate(-243.28 -259.26)" style="fill:url(#f)"/><path d="M342.58,473.88a.89.89,0,0,0,.75.23l-1.56.93a1.17,1.17,0,0,1-1-.14Z" transform="translate(-243.28 -259.26)" style="fill:#152469"/><path d="M246,469.19a1.1,1.1,0,0,1-.48.15L243.74,468h0a1.63,1.63,0,0,0,.63,0Z" transform="translate(-243.28 -259.26)" style="fill:url(#g)"/><path d="M343.47,472.63a1.32,1.32,0,0,1,.53.62,1.39,1.39,0,0,1-.71.87,1.32,1.32,0,0,1-.76-.22A2.62,2.62,0,0,0,343.47,472.63Z" transform="translate(-243.28 -259.26)" style="fill:#152469"/><path d="M243.74,468a1.22,1.22,0,0,1-.42-1.23l.3-.14a1.36,1.36,0,0,0,.71,1.37.89.89,0,0,1-.59,0Z" transform="translate(-243.28 -259.26)" style="fill:#172e65"/><path d="M245.85,469.12c49.94-19.5,72.3-8.87,95.05,5.74-13.63-8.77-27.63-15.75-47-15.89-13-.07-28.24,3.21-47.39,10.65A2.2,2.2,0,0,1,245.85,469.12Z" transform="translate(-243.28 -259.26)" style="fill:url(#h)"/><path d="M342.57,474c-22.75-15.31-46.32-27-98.19-5.91a1.43,1.43,0,0,1-.76-1.39c52.66-22.41,77.13-9.32,99.88,6A2.28,2.28,0,0,1,342.57,474Z" transform="translate(-243.28 -259.26)" style="fill:#094b8f"/><path d="M342.6,474l-1.85,1c-22.73-14.62-45.75-24.74-94.8-5.71L244.33,468C296.22,446.94,319.84,458.64,342.6,474Z" transform="translate(-243.28 -259.26)" style="fill:#094b8f"/><path d="M343.46,472.65l26.21-89.75a2.62,2.62,0,0,1,.59.5L344,473.3A1.44,1.44,0,0,0,343.46,472.65Z" transform="translate(-243.28 -259.26)" style="fill:url(#i)"/><path d="M369.83,382.29h0a1.11,1.11,0,0,1,.38,1.11v0a3.33,3.33,0,0,0-.58-.51Z" transform="translate(-243.28 -259.26)" style="fill:url(#j)"/><polygon points="25.82 118.43 0.34 207.39 0.03 207.53 25.51 118.35 25.82 118.43" style="fill:#063367;opacity:0.6600000262260437;isolation:isolate"/><path d="M268.8,377.61l-1.21,4.27-24.27,84.91a1.24,1.24,0,0,0,.42,1.23l1.73,1.32h0a1.72,1.72,0,0,0,.62.26l25.82-89.49-.06-.07-2.75-2.34Zm-25.13,89h0l.36-.13-.36.15Zm.66,1.39a2,2,0,0,1-.52-.49,1.76,1.76,0,0,0,.52.48s0,0,0,0Z" transform="translate(-243.28 -259.26)" style="opacity:0.41999995708465576;isolation:isolate;fill:url(#k)"/><path d="M370.15,382.68l-.5.3-2.17,2.14h0c-3.53,12.07-23.37,79.79-26.37,89.93a1,1,0,0,0,.64,0l1.56-.93h0a1.49,1.49,0,0,0,.69-.85h0l25.39-86.9.87-3a1.72,1.72,0,0,0-.1-.73Z" transform="translate(-243.28 -259.26)" style="opacity:0.41999995708465576;isolation:isolate;fill:url(#l)"/><path d="M369.65,383l-2.17,2.17c-7.54-5-28.32-17.91-51.79-16-19,1.55-35.82,7.68-43.78,11l-2.81-2.41.2-.62c52.5-21.72,77.82-10.17,100.54,5.22h0Z" transform="translate(-243.28 -259.26)" style="fill:url(#m)"/><path d="M271.55,379.78c52.51-21.71,76-7.36,96.34,4.94l-.4.4c-21-13-43.28-26.33-95.56-5Z" transform="translate(-243.28 -259.26)" style="opacity:0.33000004291534424;isolation:isolate;fill:url(#n)"/><path d="M269.34,377c52.5-21.71,76.76-10.56,100.53,5.3l-.2.61c-25-16.16-47.68-26.9-100-5.57Z" transform="translate(-243.28 -259.26)" style="opacity:0.33000004291534424;isolation:isolate;fill:url(#o)"/><path d="M269.11,377.69l-.3-.08a.79.79,0,0,1,.47-.53h0s0,.18-.2.62Z" transform="translate(-243.28 -259.26)" style="fill:url(#p)"/><path d="M342.63,473.93c-22.74-15.29-46.32-27-98.19-5.91a1.41,1.41,0,0,1-.77-1.38c52.67-22.42,77.14-9.32,99.88,6a2.23,2.23,0,0,1-.93,1.32Z" transform="translate(-243.28 -259.26)" style="opacity:0.5;isolation:isolate;fill:url(#q)"/><path d="M383.38,391.61c22.73,15.29,46,26.5,99.39,8.24l-24.94,86.74c-52.43,21.69-77.61,9.41-100.31-6Z" transform="translate(-243.28 -259.26)" style="fill:url(#r)"/><path d="M462.26,489.66a2.12,2.12,0,0,1-.85.84h-.07a1.28,1.28,0,0,1-.82-.25,3,3,0,0,0,1.32-1.69s.6.5.42,1.08Z" transform="translate(-243.28 -259.26)" style="fill:url(#s)"/><path d="M462.26,489.66c.09-.49-.46-1-.46-1L486.66,402a2.5,2.5,0,0,1,.52.63Z" transform="translate(-243.28 -259.26)" style="fill:url(#t)"/><path d="M487.17,402.75a1.45,1.45,0,0,0-.52-.62c.2-.84,0-1,0-1h.06A1.73,1.73,0,0,1,487.17,402.75Z" transform="translate(-243.28 -259.26)" style="fill:url(#u)"/><path d="M484.69,400.66a2.2,2.2,0,0,0-2.08-.58,1.08,1.08,0,0,1,.64-.87,1.57,1.57,0,0,1,1.43.27.47.47,0,0,1,.13.18A1.75,1.75,0,0,1,484.69,400.66Z" transform="translate(-243.28 -259.26)" style="fill:url(#v)"/><path d="M484.67,399.47l2.09,1.66a2.35,2.35,0,0,1-.11,1.12l-2.06-1.65A2.54,2.54,0,0,0,484.67,399.47Z" transform="translate(-243.28 -259.26)" style="fill:url(#w)"/><polygon points="241.28 141.2 243.38 142.88 218.56 229.54 218.46 229.75 216.28 227.88 241.28 141.2" style="fill:#b37e00;opacity:0.6600000262260437;isolation:isolate"/><path d="M482.69,400.16c-52.65,18-76.76,7.28-99.48-8a1.17,1.17,0,0,0-.09-1c22.72,15.3,47.86,25.73,100.12,8A1.48,1.48,0,0,0,482.69,400.16Z" transform="translate(-243.28 -259.26)" style="fill:url(#x)"/><polygon points="137.6 132.76 112.28 221.01 110.31 222.58 110.31 222.37 135.85 133.94 137.6 132.76" style="fill:#d9a200"/><path d="M457.58,486.65l25-86.61s.09-.08.15-.08a2.35,2.35,0,0,1,1.93.55L459.75,487A2.37,2.37,0,0,0,457.58,486.65Z" transform="translate(-243.28 -259.26)" style="opacity:0.6600000262260437;isolation:isolate;fill:url(#y)"/><path d="M461.41,490.5C410,512.5,377,499,354.3,483.66l.24-.22c22.7,15.29,57.69,28,106,6.71A1.62,1.62,0,0,0,461.41,490.5Z" transform="translate(-243.28 -259.26)" style="fill:#a85d10"/><path d="M459.73,487l2.13,1.81a2.54,2.54,0,0,1-1.43,1.5l-2.16-1.77A2.69,2.69,0,0,0,459.73,487Z" transform="translate(-243.28 -259.26)" style="opacity:0.6600000262260437;isolation:isolate;fill:url(#z)"/><path d="M457.62,486.54a2.4,2.4,0,0,0,1.08,2.17c-54.49,19.71-77.84,7.94-102-6.65a2.16,2.16,0,0,0,.84-1.47h.41C381.31,495,408.35,506.92,457.62,486.54Z" transform="translate(-243.28 -259.26)" style="fill:url(#aa)"/><path d="M354.55,483.57l2.1-1.51c20.82,13,50,27.18,101.75,6.4l2.13,1.8c-48.1,21.33-83.27,8.59-106-6.69Z" transform="translate(-243.28 -259.26)" style="fill:#c67c0c"/><path d="M354.73,483.63l-.24.17a1.86,1.86,0,0,1-.89-2.17A2.67,2.67,0,0,0,354.73,483.63Z" transform="translate(-243.28 -259.26)" style="fill:#de980d"/><path d="M353.6,481.63l2-1.62a2,2,0,0,0,1.29,2l-2.17,1.66a2.09,2.09,0,0,1-1.1-2Z" transform="translate(-243.28 -259.26)" style="fill:url(#ab)"/><path d="M355.43,480.07a2.41,2.41,0,0,1,2.11.48c-.25.93-.43,1.26-.81,1.53a2.06,2.06,0,0,1-1.3-2Z" transform="translate(-243.28 -259.26)" style="fill:url(#ac)"/><path d="M381.23,391.28l-.38.75-1.76,1.26c.13-.59,1.57-1.63,2-1.94l.13-.08Z" transform="translate(-243.28 -259.26)" style="fill:#de980d"/><path d="M383.2,392.12a2.45,2.45,0,0,0-2.35-.09c.06-.2.28-.7.28-.7a1.66,1.66,0,0,1,2-.15,1.13,1.13,0,0,1,.07.94Z" transform="translate(-243.28 -259.26)" style="fill:url(#ad)"/><path d="M357.73,480.7a2.77,2.77,0,0,0-2.32-.48L380.88,392a2.42,2.42,0,0,1,2.33.11Z" transform="translate(-243.28 -259.26)" style="fill:url(#ae)"/><path d="M379.58,392.62c7.78,6.75,41.54,34.35,107.18,8.52l-2.09-1.66c-.18-.19-.58-.4-1.42-.27-52.26,17.7-77.4,7.28-100.12-8h0a1.6,1.6,0,0,0-2,.15,6.43,6.43,0,0,0-1.56,1.26Z" transform="translate(-243.28 -259.26)" style="opacity:0.33000004291534424;isolation:isolate;fill:url(#af)"/><path d="M486.76,401.14h0c-65.64,25.83-99.41-1.78-107.18-8.52a1.86,1.86,0,0,0-.44.57h0v.07h0c6.78,5.93,40.7,35.49,108.08,8.77a1.79,1.79,0,0,0-.43-1Z" transform="translate(-243.28 -259.26)" style="opacity:0.33000004291534424;isolation:isolate;fill:url(#ag)"/><path d="M458.41,488.46a1.93,1.93,0,0,1-.78-1.93,2.25,2.25,0,0,1,2.14.48A2.28,2.28,0,0,1,458.41,488.46Z" transform="translate(-243.28 -259.26)" style="fill:url(#ah)"/><path d="M374,366.69c-13.68-9.22-28.4-17.83-49.32-18-13.79-.11-30.22,3.82-51.08,12.43l25.84-89.54c52.46-21.69,77.66-9.39,100.39,6Z" transform="translate(-243.28 -259.26)" style="fill:url(#ai)"/><path d="M374,366.67l25.85-89.09a2,2,0,0,1,.54.5L374.56,367.3A1.56,1.56,0,0,0,374,366.67Z" transform="translate(-243.28 -259.26)" style="fill:#bc1b00"/><path d="M276.11,363.73a162.4,162.4,0,0,1,23-7.64c1.73-.43,3.26-.78,5.09-1.14,1.67-.34,3.32-.66,4.94-.91,2.52-.37,5-.7,7.39-.89,2-.16,4-.28,6-.29s3.74,0,5.54.1c1.59.09,3.16.22,4.71.4,1.31.15,2.58.32,3.85.53a75.24,75.24,0,0,1,7.72,1.72c10,2.85,19,7.69,27.19,13.15a.93.93,0,0,1-.34-.1l-.2-.08c-11.09-7-23-13.16-37.71-15-15-1.84-32.6.75-56.24,10.12a3.92,3.92,0,0,1-.76.27c-.18,0-.14-.09-.18-.28Z" transform="translate(-243.28 -259.26)" style="fill:#bc1b00"/><path d="M373.1,368a1,1,0,0,0,.73.15l-1.62.73a1.61,1.61,0,0,1-1-.15Z" transform="translate(-243.28 -259.26)" style="fill:#bc1b00"/><path d="M276.12,363.75l.18.29a.82.82,0,0,1-.57-.12.71.71,0,0,1-.2-.14l-1.68-1.31-.16-.13c.23,0,.39.09.51.08Z" transform="translate(-243.28 -259.26)" style="fill:#b81a00"/><path d="M374,366.68a1,1,0,0,1,.55.55,1.56,1.56,0,0,1-.73.9,1,1,0,0,1-.79-.19,2.46,2.46,0,0,0,1-1.26Z" transform="translate(-243.28 -259.26)" style="fill:#e82e00"/><path d="M400,277h0a1,1,0,0,1,.35,1.1h0a2.62,2.62,0,0,0-.52-.54Z" transform="translate(-243.28 -259.26)" style="fill:#f83603"/><path d="M273.73,362.4a1.61,1.61,0,0,1-.35-1.4l.33-.1a1.7,1.7,0,0,0,.62,1.61.57.57,0,0,1-.6-.1Z" transform="translate(-243.28 -259.26)" style="fill:#e32e00"/><path d="M299.48,271.62l-.25-.06a.72.72,0,0,1,.47-.55h0A2.62,2.62,0,0,0,299.48,271.62Z" transform="translate(-243.28 -259.26)" style="fill:url(#aj)"/><path d="M373.15,368c-24.45-17-54.4-27.61-98.87-5.51l1.82,1.28c48.61-19.86,73.94-9.13,95.27,4.94Z" transform="translate(-243.28 -259.26)" style="fill:#e82e00"/><path d="M373.1,368c-14-9.14-27.08-16.71-47.83-17.3-15.14.3-26.78,2.24-50.94,11.83a1.34,1.34,0,0,1-.7-1.36c20.94-8.91,37.55-12.77,51.34-12.63,20.9.2,35.37,9,49,18.16a2.31,2.31,0,0,1-.92,1.31Z" transform="translate(-243.28 -259.26)" style="fill:#e82e00"/><path d="M299.23,271.55l.24.07L273.69,361.1a1.63,1.63,0,0,0-.32-.1Z" transform="translate(-243.28 -259.26)" style="fill:#e32e00"/><path d="M399.85,277.58c-22.74-15.39-48.16-27.29-100.37-6a1.89,1.89,0,0,1,.22-.61c52.46-21.69,77.58-9.43,100.3,6Z" transform="translate(-243.28 -259.26)" style="opacity:0.6600000262260437;isolation:isolate;fill:url(#ak)"/><path d="M396.85,280.53c-18.52-12-43-27.09-95.22-5.77a3.05,3.05,0,0,1,.25-.68c52.46-21.69,77.18-5.16,95.16,5.8Z" transform="translate(-243.28 -259.26)" style="fill:#fe8411;opacity:0.33000004291534424;isolation:isolate"/><path d="M300.33,272.21a2.26,2.26,0,0,1-.65,0l-26.07,90.3,1.93,1.29a.74.74,0,0,0,.2.14c.33.15.4.15.5.13l25.54-89.68.08-.27Z" transform="translate(-243.28 -259.26)" style="opacity:0.36000001430511475;isolation:isolate;fill:url(#al)"/><path d="M397,280h0v0Z" transform="translate(-243.28 -259.26)" style="opacity:0.5;isolation:isolate;fill:url(#am)"/><path d="M397.61,277.9c-8.62-5.78-23-15.16-44-16.62-22.27-1.56-50.5,9.77-53.31,10.94l1.52,1.89-.08.27.23-.09c52-22.37,84-2.17,95,5.67h0l1.64-1.34-1-.69Z" transform="translate(-243.28 -259.26)" style="opacity:0.5;isolation:isolate;fill:url(#an)"/><path d="M300.33,272.21c2.82-1.17,31-12.5,53.31-10.94,21,1.47,35.35,10.85,44,16.62l1,.69,1.61-1.3A.89.89,0,0,0,400,277c-22.22-15-46.77-27.1-96.91-7.35-1.12.45-2.24.89-3.39,1.37h0Z" transform="translate(-243.28 -259.26)" style="fill:#fff4c5;opacity:0.5;isolation:isolate"/><path d="M400,277l-.15.58-1.21,1L397,279.92V280c-5.42,18.57-22.34,76.56-25.93,88.64l.12.06h0a1.61,1.61,0,0,0,1,.15l1.62-.73h0a1.7,1.7,0,0,0,.71-.83h0l24.77-85.56h0l.61-2.11v-.09l.41-1.4A1,1,0,0,0,400,277Z" transform="translate(-243.28 -259.26)" style="opacity:0.6000000238418579;isolation:isolate;fill:url(#ao)"/><path d="M373.16,367.93c-14-9.14-27.08-16.72-47.82-17.31-15.15.31-26.78,2.24-51,11.83a1.3,1.3,0,0,1-.7-1.35c20.94-8.92,37.55-12.78,51.35-12.64,20.89.22,35.37,9,49,18.16a2.31,2.31,0,0,1-.93,1.31Z" transform="translate(-243.28 -259.26)" style="opacity:0.5;isolation:isolate;fill:url(#ap)"/><path d="M299.48,271.13a.79.79,0,0,0-.25.41l-1.33,4.56L273.38,361a1.61,1.61,0,0,0,.35,1.4h.07l0,0h-.25l26.07-90.3a2.26,2.26,0,0,0,.65,0Z" transform="translate(-243.28 -259.26)" style="fill:none"/><path d="M400,277h0a1,1,0,0,1,.35,1.09h0a2.85,2.85,0,0,0-.52-.54Z" transform="translate(-243.28 -259.26)" style="fill:#f83603"/><path d="M299.48,271.62l-.24-.06a.76.76,0,0,1,.47-.55h0A2.49,2.49,0,0,0,299.48,271.62Z" transform="translate(-243.28 -259.26)" style="fill:url(#aj)"/><path d="M399.85,277.58c-22.73-15.39-48.16-27.28-100.38-6a2.15,2.15,0,0,1,.23-.61c52.46-21.69,77.58-9.43,100.3,6Z" transform="translate(-243.28 -259.26)" style="opacity:0.6600000262260437;isolation:isolate;fill:url(#ar)"/><path d="M513.72,292.76c-52.39,21.65-77.55,9.47-100.23-5.8l-25.84,89.62c22.66,15.36,50,28,100.27,5.49Z" transform="translate(-243.28 -259.26)" style="fill:url(#as)"/><path d="M513.62,292.83c-52.38,21.64-77.45,9.47-100.13-5.79a1.62,1.62,0,0,0,0-1c22.68,15.27,48.37,27.57,100.72,5.91-.43.25-.46.55-.59.85Z" transform="translate(-243.28 -259.26)" style="fill:url(#at)"/><polygon points="168.06 27.51 142.48 116.33 140.51 117.9 140.51 117.7 166.18 28.85 168.06 27.51" style="fill:#8cac42"/><path d="M387.7,376.61c-.78-.45-1.37-1.36-2.08-1.07l25.64-88.72a2.21,2.21,0,0,1,2.32.22Z" transform="translate(-243.28 -259.26)" style="fill:url(#au)"/><path d="M411.59,286.2l-.26.63-1.87,1.35c.17-.61,1.61-1.61,2-1.93Z" transform="translate(-243.28 -259.26)" style="fill:#5f821c"/><path d="M413.5,287a2.39,2.39,0,0,0-2.25-.13,6,6,0,0,1,.23-.59,1.68,1.68,0,0,1,2-.18A1.19,1.19,0,0,1,413.5,287Z" transform="translate(-243.28 -259.26)" style="fill:url(#av)"/><polygon points="272.25 34 274.37 35.68 248.32 124.93 246.34 123.22 272.25 34" style="opacity:0.8100000023841858;isolation:isolate;fill:url(#aw)"/><path d="M492.12,384.85a1.18,1.18,0,0,0-.47-.93l26-89.06a2.44,2.44,0,0,1,.53.63Z" transform="translate(-243.28 -259.26)" style="fill:#476e32"/><path d="M491.25,385.67a120.23,120.23,0,0,1-39.53,10.71,92.38,92.38,0,0,1-52.45-9.11A104.44,104.44,0,0,1,384.5,379l.24-.18a126.11,126.11,0,0,0,14.53,8.47,103.65,103.65,0,0,0,52.45,9.11c11.61-1.33,24.45-4.76,38.63-11a1.8,1.8,0,0,0,.9.32Z" transform="translate(-243.28 -259.26)" style="fill:#1d3419"/><path d="M488.42,384a2.72,2.72,0,0,1-.82-2.19,2.42,2.42,0,0,1,2.24.49A2.63,2.63,0,0,1,488.42,384Z" transform="translate(-243.28 -259.26)" style="fill:url(#ax)"/><path d="M489.83,382.31l1.85,1.66a2.54,2.54,0,0,1-1.41,1.52l-1.94-1.65a2.74,2.74,0,0,0,1.49-1.53Z" transform="translate(-243.28 -259.26)" style="fill:url(#ay)"/><path d="M487.92,381.77a2.92,2.92,0,0,0,.78,2.27c-52.36,21.66-79.33,8.93-102-6.45.4-.28.45-.28.72-1.21C410.07,391.75,444.34,402.51,487.92,381.77Z" transform="translate(-243.28 -259.26)" style="fill:url(#az)"/><path d="M384.74,378.89l2-1.3c22.68,14.61,49.47,27.23,101.8,6.2l1.88,1.64c-50.22,22.16-82.35,9.83-105.63-6.55Z" transform="translate(-243.28 -259.26)" style="fill:#26551b"/><path d="M492.12,384.85a1.94,1.94,0,0,1-.87.83h0a1.24,1.24,0,0,1-.84-.26,2.88,2.88,0,0,0,1.33-1.69,1.27,1.27,0,0,1,.43,1.11Z" transform="translate(-243.28 -259.26)" style="fill:#5f821c"/><path d="M384.82,378.87l-.23.18a1.75,1.75,0,0,1-.79-2.09A2.42,2.42,0,0,0,384.82,378.87Z" transform="translate(-243.28 -259.26)" style="fill:#26551b"/><path d="M383.8,377l1.89-1.49a2.09,2.09,0,0,0,1.11,2L384.89,379a2.11,2.11,0,0,1-1.09-2Z" transform="translate(-243.28 -259.26)" style="fill:url(#ba)"/><path d="M385.65,375.47c.65-.21,1.22.48,2,1.1-.26.92-.48.76-.88,1A2.16,2.16,0,0,1,385.65,375.47Z" transform="translate(-243.28 -259.26)" style="fill:url(#bb)"/><path d="M517.83,294a2.5,2.5,0,0,1-.22.88l-2-1.62a2,2,0,0,0,.15-1.16A8.36,8.36,0,0,1,517.83,294Z" transform="translate(-243.28 -259.26)" style="opacity:0.7200000286102295;isolation:isolate;fill:url(#bc)"/><path d="M517.79,293.94a11,11,0,0,0-1.46-1.43,2.18,2.18,0,0,0-2.24-.48h0c-52.24,21.57-77.91,9.27-100.58-6a1.08,1.08,0,0,1,.07.33,1.08,1.08,0,0,0-.07-.33,1.68,1.68,0,0,0-2,.18,12,12,0,0,0-1.66,1.39c8.71,7.34,45.77,36.37,108,6.3Zm-104.29-7h0a1,1,0,0,0,.06-.35,1.1,1.1,0,0,1-.06.37Z" transform="translate(-243.28 -259.26)" style="opacity:0.33000004291534424;isolation:isolate;fill:url(#bd)"/><path d="M487.68,382l25.9-89.17a2.2,2.2,0,0,1,2.09.54l-25.83,89A2.41,2.41,0,0,0,487.68,382Z" transform="translate(-243.28 -259.26)" style="opacity:0.7200000286102295;isolation:isolate;fill:url(#be)"/><path d="M513.62,292.83a1.22,1.22,0,0,1,.46-.81,2.18,2.18,0,0,1,2.24.48c.88.8,2.24,1.72,1.83,3a2.15,2.15,0,0,0-.5-.58l-2-1.56A2.16,2.16,0,0,0,513.62,292.83Z" transform="translate(-243.28 -259.26)" style="opacity:0.6000000238418579;isolation:isolate;fill:url(#bf)"/><path d="M409.82,287.64a2.25,2.25,0,0,0-.33.45h0l-.09.3c7.89,6.67,45.29,37.39,108.81,6.47a1.9,1.9,0,0,0-.41-1c-62.19,30.07-99.25,1-108-6.3Z" transform="translate(-243.28 -259.26)" style="opacity:0.30000001192092896;isolation:isolate;fill:url(#bg)"/><path d="M517.83,294a2.47,2.47,0,0,1-.22.88l-2-1.62a2.12,2.12,0,0,0,.16-1.16A8.81,8.81,0,0,1,517.83,294Z" transform="translate(-243.28 -259.26)" style="opacity:0.7200000286102295;isolation:isolate;fill:url(#bh)"/><path d="M513.62,292.83a1.2,1.2,0,0,1,.47-.81,2.16,2.16,0,0,1,2.24.49c.88.79,2.25,1.71,1.83,3a2.22,2.22,0,0,0-.51-.58l-2-1.56A2.17,2.17,0,0,0,513.62,292.83Z" transform="translate(-243.28 -259.26)" style="opacity:0.6000000238418579;isolation:isolate;fill:url(#bi)"/></svg>