<svg xmlns="http://www.w3.org/2000/svg" viewBox="0 0 253.19 32.91"><title>Oracle Corporation logo - Brandlogos.net</title><path d="M366.95,388.94h16.7l-8.82-14.24-16.22,25.73h-7.37L371,369.56a4.7,4.7,0,0,1,7.67-.05l19.78,30.92H391l-3.47-5.75h-16.9L367,388.94m76.62,5.73V367.86h-6.27v29.45a3,3,0,0,0,.93,2.19,3.17,3.17,0,0,0,2.28,1H469l3.71-5.75H443.57M340,389.88a11,11,0,1,0,0-22H312.59v32.56h6.26v-26.8H339.6a5.27,5.27,0,0,1,0,10.54H321.95l18.69,16.26h9.08l-12.56-10.54H340m-65.87,10.54H293a16.28,16.28,0,0,0,0-32.55H274.11a16.28,16.28,0,0,0-.84,32.55h.84m18.5-5.73H274.52a10.54,10.54,0,0,1,0-21.07H292.6a10.54,10.54,0,0,1,.68,21.07h-.68m118.87,5.73H430.8l3.66-5.73H411.91a10.54,10.54,0,1,1-.68-21.07h19l3.7-5.75H411.48a16.28,16.28,0,0,0-.84,32.55h.84M488,394.69A10.54,10.54,0,0,1,477.89,387h26.76l3.68-5.74H477.89A10.53,10.53,0,0,1,488,373.61H506.4l3.67-5.75H487.61a16.28,16.28,0,0,0,0,32.55h19.32l3.67-5.73H488" transform="translate(-257.4 -367.55)" style="fill:#c74634"/></svg>