<svg xmlns="http://www.w3.org/2000/svg" xmlns:xlink="http://www.w3.org/1999/xlink" viewBox="0 0 307.5 136.47"><defs><style>.a{fill:#003b57;}.b{fill:#0f80cc;}.c{fill:url(#a);}</style><linearGradient id="a" x1="218.79" y1="928.98" x2="226.34" y2="928.98" gradientTransform="matrix(0, 11.49, 11.49, 0, -10264.92, -2058.49)" gradientUnits="userSpaceOnUse"><stop offset="0" stop-color="#97d9f6"/><stop offset="0.92" stop-color="#0f80cc"/><stop offset="1" stop-color="#0f80cc"/></linearGradient></defs><title>SQLite logo</title><path class="a" d="M475.13,511.08a13.91,13.91,0,0,0-10,3.64,12.55,12.55,0,0,0-3.85,9.51,15.63,15.63,0,0,0,1,5.55,14,14,0,0,0,2.95,4.67,43,43,0,0,0,7.94,5.79c4.86,3,8,5.37,9.56,7.25a9.23,9.23,0,0,1,2.28,5.9,8.35,8.35,0,0,1-2.76,6.59,10.82,10.82,0,0,1-7.44,2.47,12.16,12.16,0,0,1-12.22-12.51h-1.51v13.73h1.51c.46-1.3,1.1-2,1.94-2a12.48,12.48,0,0,1,2.82.8,27.44,27.44,0,0,0,8.82,1.89,14.46,14.46,0,0,0,14.45-14.45,13.14,13.14,0,0,0-2.79-8.23q-2.77-3.6-10.81-8.39-6.93-4.16-9-6.8a9.24,9.24,0,0,1-2.1-5.84,6.85,6.85,0,0,1,2.52-5.55A10,10,0,0,1,475,513a11,11,0,0,1,7.7,2.76,11.59,11.59,0,0,1,3.56,7.7h1.51v-11.9h-1.41a3.6,3.6,0,0,1-.48,1.17,1,1,0,0,1-.82.27,10.18,10.18,0,0,1-2.6-.61A23.2,23.2,0,0,0,475.13,511.08Zm49.48,0A26.82,26.82,0,0,0,511,514.62a26.78,26.78,0,0,0-13.33,23.05,25.42,25.42,0,0,0,6.24,16.89,26.16,26.16,0,0,0,15,9.19q2,1,5.71,5.36a45,45,0,0,0,7.12,7,21.39,21.39,0,0,0,6.27,3.11,24.66,24.66,0,0,0,7.22,1,20.22,20.22,0,0,0,8.45-1.67l-.56-1.38a13.45,13.45,0,0,1-4.59.77,12.09,12.09,0,0,1-6.64-2.18q-3.33-2.19-8.31-8.34a28.61,28.61,0,0,0-3.24-3.69,26.22,26.22,0,0,0,15.64-9.24A25.7,25.7,0,0,0,552,537.67a25.28,25.28,0,0,0-7.94-18.88A27,27,0,0,0,524.6,511.08Zm30.89,0,.08,1.62c3.32,0,5.19,1,5.6,2.95a22.38,22.38,0,0,1,.24,3.88l0,35.82q0,4-1.14,5.13a6.12,6.12,0,0,1-3.77,1.38l-.08,1.62h33.14l.85-8.13h-1.51a6.49,6.49,0,0,1-3,4.7c-1.58.91-4.38,1.35-8.42,1.35h-3.13q-5.45,0-6.29-4a8.27,8.27,0,0,1-.16-1.7l.13-36.22c0-2.67.34-4.46,1-5.34s2-1.36,3.82-1.49l-.08-1.62H555.49Zm-30.35,2a16.79,16.79,0,0,1,13.78,6.69q5.33,6.71,5.31,18.38,0,11-5.36,17.69a17.42,17.42,0,0,1-14.26,6.64,16.67,16.67,0,0,1-13.84-6.85q-5.3-6.86-5.28-17.82,0-11.26,5.34-18A17.34,17.34,0,0,1,525.13,513Zm76.22,7.7a2.31,2.31,0,0,0-1.89.82,2.23,2.23,0,0,0-.45,2,3.56,3.56,0,0,0,1.3,2,3.49,3.49,0,0,0,2.26.88,2.12,2.12,0,0,0,1.81-.88,2.46,2.46,0,0,0,.4-2,3.49,3.49,0,0,0-1.25-2A3.35,3.35,0,0,0,601.35,520.75Zm21.86,5.5q-2.06,7.93-8.92,8.6l.05,1.51h5.34l-.11,17.9a37.85,37.85,0,0,0,.32,6.13c.53,2.48,2.15,3.74,4.86,3.74q5.89,0,12.35-7.17l-1.3-1.12q-4.66,4.72-8.26,4.73c-1.48,0-2.39-.85-2.74-2.52a6.42,6.42,0,0,1-.13-1.43l.05-20.26h8.15l-.08-2.42h-8v-7.7h-1.54ZM654.73,533q-6.84,0-11.15,6.61a18.78,18.78,0,0,0-2.63,14.66,12.63,12.63,0,0,0,4,7.3,11.42,11.42,0,0,0,7.65,2.58c2.85,0,6.83-.72,8.5-2.18a20,20,0,0,0,4.65-7l-1.14-1.2A12.37,12.37,0,0,1,654.28,560c-4.76,0-7.68-2.61-8.76-7.81a19,19,0,0,1-.32-2.12q8.5-1.35,12.85-4.78c2.89-2.3,5.8-4.73,5.26-7.3a5.92,5.92,0,0,0-2.34-3.64C659.73,533.47,656.52,533,654.73,533Zm-49.85.19-9.83,2.26v1.75l3.4-.42a2.63,2.63,0,0,1,2.92,2.23,12,12,0,0,1,.19,2.07l-.11,16.07c0,2.22-.27,3.52-.77,3.9s-1.82.58-4,.58l-.05,1.51h15.59l0-1.51a10.86,10.86,0,0,1-4.2-.5,2.51,2.51,0,0,1-1.22-1.86,19.69,19.69,0,0,1-.21-3.4l.05-22.68h-1.78Zm47.35,3a4.49,4.49,0,0,1,2.79,1.09,4.21,4.21,0,0,1,1.65,2.39c.89,4.27-2.9,7.22-11.42,8.87a15,15,0,0,1,1.67-8.5C648.29,537.45,650.07,536.15,652.23,536.15Z" transform="translate(-358.25 -443.76)"/><path class="b" d="M453.12,449.74H368.55A10.34,10.34,0,0,0,358.25,460V553.3a10.33,10.33,0,0,0,10.3,10.3h55.69C423.62,535.89,433.08,482.12,453.12,449.74Z" transform="translate(-358.25 -443.76)"/><path class="c" d="M450,452.75H368.55a7.31,7.31,0,0,0-7.3,7.3V546.5c18.46-7.08,46.16-13.19,65.31-12.92C430.41,513.46,441.72,474,450,452.75Z" transform="translate(-358.25 -443.76)"/><path class="a" d="M472.84,446.69c-5.79-5.16-12.8-3.09-19.72,3.05-1,.91-2.05,1.92-3.07,3-11.84,12.56-22.83,35.82-26.24,53.59a49,49,0,0,1,3.05,8.77c.18.67.33,1.31.46,1.85.3,1.27.46,2.1.46,2.1s-.11-.4-.54-1.66l-.28-.82c0-.13-.11-.28-.18-.45-.77-1.8-2.91-5.58-3.85-7.23-.8,2.37-1.51,4.59-2.11,6.6,2.71,5,4.37,13.48,4.37,13.48s-.14-.55-.83-2.48a91.63,91.63,0,0,0-4.34-8.22c-1.22,4.51-1.71,7.56-1.27,8.3a28.92,28.92,0,0,1,2.37,6.66c1.61,6.18,2.72,13.7,2.72,13.7s0,.5.1,1.27a125.84,125.84,0,0,0,.31,15.43c.53,6.44,1.53,12,2.81,14.92l.87-.47c-1.87-5.83-2.64-13.47-2.3-22.28.5-13.47,3.6-29.7,9.33-46.63,9.67-25.55,23.09-46,35.38-55.84-11.2,10.11-26.35,42.84-30.88,55a219.74,219.74,0,0,0-10.85,38.51c3.74-11.44,15.84-16.36,15.84-16.36s5.93-7.32,12.87-17.78c-4.15.95-11,2.57-13.26,3.53-3.37,1.41-4.28,1.9-4.28,1.9s10.92-6.65,20.29-9.66c12.88-20.29,26.92-49.11,12.78-61.72" transform="translate(-358.25 -443.76)"/></svg>